<svg width="68" height="57" viewBox="0 0 68 57" fill="none" xmlns="http://www.w3.org/2000/svg">
<rect y="5.80566" width="68" height="45.3889" rx="2.11111" fill="black" fill-opacity="0.52"/>
<path d="M24.4593 42L19.4053 32.348H19.3673V42H10.9313V15.096H23.4713C25.6499 15.096 27.5119 15.4887 29.0573 16.274C30.6026 17.034 31.7553 18.0853 32.5153 19.428C33.3006 20.7453 33.6933 22.24 33.6933 23.912C33.6933 25.7107 33.1866 27.3067 32.1733 28.7C31.1853 30.0933 29.7539 31.094 27.8793 31.702L33.7313 42H24.4593ZM19.3673 26.724H22.7113C23.5219 26.724 24.1299 26.5467 24.5353 26.192C24.9406 25.812 25.1433 25.2293 25.1433 24.444C25.1433 23.7347 24.9279 23.1773 24.4973 22.772C24.0919 22.3667 23.4966 22.164 22.7113 22.164H19.3673V26.724ZM44.8243 15.096V42H36.3883V15.096H44.8243ZM52.8144 42.304C51.345 42.304 50.167 41.9113 49.2804 41.126C48.3937 40.3407 47.9504 39.3527 47.9504 38.162C47.9504 36.946 48.3937 35.9453 49.2804 35.16C50.167 34.3493 51.345 33.944 52.8144 33.944C54.2584 33.944 55.4237 34.3493 56.3104 35.16C57.197 35.9453 57.6404 36.946 57.6404 38.162C57.6404 39.3527 57.197 40.3407 56.3104 41.126C55.4237 41.9113 54.2584 42.304 52.8144 42.304Z" fill="#EDF2F7"/>
</svg>
