<svg width="68" height="45" viewBox="0 0 68 45" fill="none" xmlns="http://www.w3.org/2000/svg">
<g clip-path="url(#clip0)">
<path d="M65.8889 -0.194336H2.11111C0.945176 -0.194336 0 0.75084 0 1.91677V43.0835C0 44.2494 0.945176 45.1946 2.11111 45.1946H65.8889C67.0548 45.1946 68 44.2494 68 43.0835V1.91677C68 0.75084 67.0548 -0.194336 65.8889 -0.194336Z" fill="black" fill-opacity="0.52"/>
<path d="M24.4592 36.0002L19.4052 26.3482H19.3672V36.0002H10.9312V9.09619H23.4712C25.6498 9.09619 27.5118 9.48889 29.0572 10.2742C30.6025 11.0342 31.7552 12.0855 32.5152 13.4282C33.3005 14.7455 33.6931 16.2402 33.6931 17.9122C33.6931 19.7109 33.1865 21.3069 32.1732 22.7002C31.1852 24.0935 29.7538 25.0942 27.8792 25.7022L33.7312 36.0002H24.4592ZM19.3672 20.7242H22.7112C23.5218 20.7242 24.1298 20.5469 24.5352 20.1922C24.9405 19.8122 25.1432 19.2295 25.1432 18.4442C25.1432 17.7349 24.9278 17.1775 24.4972 16.7722C24.0918 16.3669 23.4965 16.1642 22.7112 16.1642H19.3672V20.7242ZM44.8242 9.09619V36.0002H36.3882V9.09619H44.8242ZM52.8143 36.3042C51.3449 36.3042 50.1669 35.9115 49.2803 35.1262C48.3936 34.3409 47.9503 33.3529 47.9503 32.1622C47.9503 30.9462 48.3936 29.9455 49.2803 29.1602C50.1669 28.3495 51.3449 27.9442 52.8143 27.9442C54.2583 27.9442 55.4235 28.3495 56.3102 29.1602C57.1968 29.9455 57.6403 30.9462 57.6403 32.1622C57.6403 33.3529 57.1968 34.3409 56.3102 35.1262C55.4235 35.9115 54.2583 36.3042 52.8143 36.3042Z" fill="#EDF2F7"/>
</g>
<defs>
<clipPath id="clip0">
<rect width="68" height="45" fill="white"/>
</clipPath>
</defs>
</svg>
