<svg width="132" height="29" viewBox="0 0 132 29" fill="none" xmlns="http://www.w3.org/2000/svg">
<path d="M85.4595 19.3608C85.4595 14.0712 89.7264 10.1541 94.9444 10.1541C100.113 10.1541 104.38 14.0712 104.38 19.3608C104.38 24.6646 100.113 28.5884 94.9444 28.5884C89.7264 28.5818 85.4595 24.6646 85.4595 19.3608ZM53.2427 3.8638V4.93601C53.2427 5.3363 53.1569 5.45836 53.0788 5.62222L42.9781 22.8204C42.9572 22.849 42.9704 22.8919 43.0144 22.8919H53.7716V28.0099H34.4004V27.0092C34.4004 26.566 34.4576 26.4737 34.7006 26.0305L44.687 9.06758C44.7079 9.03239 44.6936 8.9961 44.6507 8.9961H34.7072V3.8638H53.2427ZM115.48 28.0033H110.306L104.68 10.5973H110.241L111.85 15.8659C112.386 17.6101 113.286 20.8839 113.286 20.8839C113.301 20.9268 113.358 20.9191 113.364 20.8839C113.364 20.8839 114.294 17.5452 114.824 15.8659L116.511 10.5973H120.614L122.272 15.8659C122.83 17.6672 123.702 20.8839 123.702 20.8839C123.715 20.9268 123.765 20.9268 123.787 20.8839C123.787 20.8839 124.688 17.631 125.224 15.8659L126.832 10.5973H132L126.41 28.0033H121.328L119.942 23.6287C119.412 21.9132 118.476 18.5822 118.476 18.5822C118.462 18.5393 118.404 18.5393 118.398 18.5822C118.398 18.5822 117.461 21.8483 116.897 23.6001L115.48 28.0033ZM62.986 28.0033H57.36V10.5973H62.986V28.0033ZM67.2529 1.39717H72.8789V28.0033H67.2529V1.39717ZM77.0457 1.39717H82.6718V28.0033H77.0457V1.39717ZM98.9836 19.3608C98.9836 16.7732 97.1318 15.0071 94.9444 15.0071C92.7077 15.0071 90.8558 16.7732 90.8558 19.3608C90.8558 21.9704 92.7077 23.7134 94.9444 23.7134C97.1318 23.7145 98.9836 21.9704 98.9836 19.3608ZM60.1697 1.87664C61.9204 1.87664 63.372 3.29195 63.372 5.03608C63.372 6.78021 61.9204 8.19552 60.1697 8.19552C58.4179 8.19552 56.9674 6.78021 56.9674 5.03608C56.9663 3.29195 58.4179 1.87664 60.1697 1.87664Z" fill="white"/>
<path d="M6.93201 25.0663C6.82493 25.1237 6.73771 25.1094 6.6516 25.0233L4.25482 22.1672C4.19078 22.0877 4.18306 22.0447 4.26917 21.9232C6.12168 19.2107 9.90288 14.9835 12.314 13.1972C12.3571 13.1685 12.3427 13.1321 12.2919 13.1542C9.78033 13.9722 2.64077 17.0435 0 18.5362V28.237H25.6978V18.895C22.1959 19.49 11.7046 22.6121 6.93201 25.0663V25.0663ZM17.3803 7.61429C17.5094 7.58558 17.5668 7.62864 17.6452 7.71475C18.0901 8.20934 19.5121 9.94594 19.8985 10.4196C19.9703 10.5057 19.9206 10.5995 19.8632 10.6492C16.9928 12.8881 13.7989 16.0599 12.0192 18.3275C11.9839 18.3783 12.0126 18.3783 12.0413 18.3706C15.1414 17.0358 22.4244 14.904 25.7044 14.3089V10.1546L12.8671 0L0.007728 10.1469V14.6887C3.98986 12.3217 13.2038 8.65425 17.3803 7.61429V7.61429Z" fill="white"/>
</svg>
